<?xml version="1.0" standalone="no"?>
<!DOCTYPE svg PUBLIC "-//W3C//DTD SVG 20010904//EN"
 "http://www.w3.org/TR/2001/REC-SVG-20010904/DTD/svg10.dtd">
<svg version="1.0" xmlns="http://www.w3.org/2000/svg"
 width="616.000000pt" height="616.000000pt" viewBox="0 0 616.000000 616.000000"
 preserveAspectRatio="xMidYMid meet">
<metadata>
Created by potrace 1.14, written by Peter Selinger 2001-2017
</metadata>
<g transform="translate(0.000000,616.000000) scale(0.100000,-0.100000)"
fill="#000000" stroke="none">
<path d="M3305 5486 c-611 -612 -795 -805 -795 -835 0 -6 -4 -11 -10 -11 -5 0
-10 -4 -10 -9 0 -5 -16 -33 -36 -62 -20 -30 -56 -94 -81 -143 -44 -87 -125
-286 -117 -286 2 0 -1 -12 -7 -27 -28 -74 -66 -306 -70 -428 l-3 -70 902 0
902 0 1 -30 c0 -38 0 -1746 0 -1762 -1 -9 -22 -11 -78 -8 -85 5 -187 15 -218
21 -11 3 -35 7 -54 9 -18 3 -36 7 -40 10 -4 2 -23 7 -42 10 -19 3 -50 11 -69
17 -19 7 -37 13 -40 13 -3 1 -12 4 -20 8 -8 3 -44 15 -80 27 -79 26 -240 107
-335 169 -276 179 -518 454 -654 743 -78 168 -134 359 -157 534 -10 83 -12
101 -13 168 l-1 68 -107 -5 c-60 -3 -119 -8 -133 -11 -14 -2 -45 -7 -70 -10
-128 -17 -368 -97 -515 -174 -76 -39 -234 -138 -250 -156 -5 -6 -28 -24 -50
-40 -75 -56 -198 -178 -279 -278 -171 -211 -317 -523 -362 -773 -1 -11 -6 -33
-9 -50 -20 -115 -27 -406 -12 -525 10 -75 34 -194 51 -255 18 -65 73 -222 83
-238 4 -6 8 -14 8 -17 1 -7 63 -130 78 -154 174 -284 330 -452 572 -613 187
-126 466 -242 642 -267 15 -3 39 -7 53 -10 57 -13 163 -20 305 -20 172 0 255
8 375 35 25 6 56 13 69 15 67 13 244 80 351 132 54 27 230 130 240 141 3 3 34
28 70 55 187 142 373 366 487 584 34 66 101 220 109 251 2 9 13 48 24 86 22
74 24 81 40 160 15 77 29 204 32 293 1 23 4 42 7 43 3 0 35 2 71 3 140 6 274
29 421 71 134 39 149 45 295 116 301 146 575 396 736 669 17 30 35 57 40 58 4
2 8 12 8 22 0 9 7 23 15 30 8 7 15 16 15 20 0 4 16 42 35 84 19 42 35 80 36
84 1 4 13 39 26 77 24 68 28 83 38 126 2 11 6 28 9 37 3 9 8 34 12 56 3 21 8
48 10 60 13 57 19 156 19 301 0 156 -3 187 -25 310 -6 33 -13 73 -16 89 -15
78 -90 284 -141 386 -54 106 -165 283 -199 317 -8 8 -27 31 -42 51 -24 32
-1310 1323 -1358 1363 -18 16 -47 -12 -689 -655z"/>
</g>
</svg>
