<svg viewBox="0 0 135 154" fill="none">
  <path
    d="M135 63.6668C135 76.0049 130.039 87.175 122.003 95.3106L121.624 95.6899C113.508 103.716 102.358 108.677 90.04 108.687V63.6868H44.9501V63.6768C44.9501 51.3387 49.9113 40.1686 57.947 32.0331L89.9801 0L122.003 32.0231C130.039 40.1586 135 51.3387 135 63.6668Z"
    fill="#63D7E5"
  />
  <path
    d="M90.0399 108.697V108.976C89.9701 120.416 85.5779 131.826 76.8534 140.54C68.1289 149.265 56.7192 153.657 45.2895 153.727H44.7505C33.3108 153.657 21.9011 149.265 13.1866 140.54C4.46207 131.816 0.0698758 120.406 0 108.976V108.437C0.0698758 96.9976 4.46207 85.5879 13.1866 76.8734C21.911 68.1489 33.3208 63.7567 44.7505 63.6868H44.9601C44.9601 76.0149 49.9213 87.1851 57.957 95.3206L58.3363 95.6999C66.4718 103.736 77.642 108.697 89.98 108.697H90.0399Z"
    fill="#6464F6"
  />
</svg>