<svg width="22" height="22" viewBox="0 0 22 22" fill="none" xmlns="http://www.w3.org/2000/svg">
<path d="M21.8793 16.5553C21.8793 19.3024 19.6625 21.528 16.9296 21.528C14.1967 21.528 11.9817 19.3024 11.9817 16.5553V11.5844H16.9296C19.6625 11.5844 21.8793 13.81 21.8793 16.5553Z" fill="#00A8EA"/>
<path d="M0.463135 16.5553C0.463135 19.3024 2.69058 21.528 5.43587 21.528C8.18116 21.528 10.4068 19.3024 10.4068 16.5553V11.5844H5.43587C2.69058 11.5844 0.463135 13.81 0.463135 16.5553Z" fill="#0080D1"/>
<path d="M21.8792 5.44117C21.8792 8.18824 19.6518 10.4139 16.9065 10.4139C14.1612 10.4139 11.9355 8.18824 11.9355 5.44117V0.470215H16.9065C19.6518 0.470215 21.8792 2.69589 21.8792 5.44117Z" fill="#004DAD"/>
<path d="M10.4068 5.44117C10.4068 8.18824 8.17938 10.4139 5.43409 10.4139C2.68881 10.4139 0.463135 8.18824 0.463135 5.44117V0.470215H5.43409C8.17938 0.470215 10.4068 2.69589 10.4068 5.44117Z" fill="#261E87"/>
</svg>
