<?xml version="1.0" standalone="no"?>
<!DOCTYPE svg PUBLIC "-//W3C//DTD SVG 20010904//EN"
 "http://www.w3.org/TR/2001/REC-SVG-20010904/DTD/svg10.dtd">
<svg version="1.0" xmlns="http://www.w3.org/2000/svg"
 width="700.000000pt" height="700.000000pt" viewBox="0 0 700.000000 700.000000"
 preserveAspectRatio="xMidYMid meet">
<metadata>
Created by potrace 1.14, written by Peter Selinger 2001-2017
</metadata>
<g transform="translate(0.000000,700.000000) scale(0.100000,-0.100000)"
fill="#000000" stroke="none">
<path d="M150 6823 c-3 -177 1 -1683 4 -1698 2 -11 7 -49 12 -85 4 -36 8 -67
9 -70 1 -3 5 -21 9 -40 40 -181 138 -410 238 -554 181 -261 477 -493 748 -586
36 -12 74 -26 85 -31 11 -5 58 -17 105 -28 352 -83 720 -45 1038 106 126 60
290 163 353 223 8 8 40 38 71 67 30 28 77 78 104 110 27 32 52 60 55 63 22 19
129 192 168 275 65 135 120 298 136 405 3 25 9 65 13 90 9 59 9 342 0 405 -94
650 -545 1158 -1176 1325 -177 47 -226 49 -1124 50 l-848 0 0 -27z"/>
<path d="M3799 6823 c0 -16 -1 -383 -1 -818 0 -691 4 -954 17 -975 2 -3 6 -26
10 -50 23 -161 122 -412 219 -560 164 -250 374 -437 631 -564 157 -78 331
-135 464 -151 22 -3 60 -7 84 -10 130 -17 332 -5 497 30 498 103 930 469 1126
953 42 104 91 287 101 380 10 83 10 361 1 422 -54 361 -205 661 -462 915 -200
197 -429 328 -700 400 -194 52 -209 53 -1128 54 l-858 1 -1 -27z"/>
<path d="M1717 3314 c-1 -1 -47 -4 -102 -7 -112 -7 -133 -10 -255 -38 -92 -22
-191 -55 -276 -94 -30 -14 -57 -25 -59 -25 -2 0 -42 -22 -87 -49 -281 -166
-503 -408 -641 -696 -34 -71 -103 -274 -111 -329 -4 -21 -8 -41 -10 -45 -12
-19 -20 -137 -21 -291 0 -177 4 -234 25 -325 7 -27 14 -60 16 -73 2 -12 18
-64 35 -115 173 -516 600 -905 1134 -1032 139 -33 198 -40 365 -40 140 0 222
7 305 25 22 5 52 11 66 13 63 12 249 81 337 127 174 89 280 166 413 300 235
238 380 520 438 855 18 103 19 166 18 975 l-2 864 -793 1 c-437 0 -794 -1
-795 -1z"/>
<path d="M3828 3312 c-14 -3 -16 -90 -15 -840 0 -460 4 -871 9 -912 64 -550
396 -1017 893 -1258 102 -50 284 -107 405 -128 149 -26 414 -25 554 2 248 48
517 172 701 325 59 49 206 198 246 249 131 167 267 445 294 603 4 18 11 52 16
77 19 84 24 144 24 310 -1 185 -5 221 -40 369 -126 523 -519 952 -1029 1122
-50 17 -98 32 -106 34 -128 26 -176 35 -235 41 -66 7 -1683 13 -1717 6z"/>
</g>
</svg>
