<svg width="16" height="16" viewBox="0 0 16 16" fill="none" xmlns="http://www.w3.org/2000/svg">
<path fill-rule="evenodd" clip-rule="evenodd" d="M9.33325 2.00016C9.33325 1.63197 9.63173 1.3335 9.99992 1.3335H13.9999C14.0778 1.3335 14.1525 1.34684 14.2219 1.37136C14.313 1.40344 14.3986 1.45591 14.4714 1.52876C14.6042 1.66159 14.6693 1.83652 14.6666 2.01059V6.00016C14.6666 6.36835 14.3681 6.66683 13.9999 6.66683C13.6317 6.66683 13.3333 6.36835 13.3333 6.00016V3.60972L7.13807 9.8049C6.87772 10.0653 6.45561 10.0653 6.19526 9.8049C5.93491 9.54455 5.93491 9.12244 6.19526 8.86209L12.3905 2.66683H9.99992C9.63173 2.66683 9.33325 2.36835 9.33325 2.00016ZM3.33325 4.66683C3.15644 4.66683 2.98687 4.73707 2.86185 4.86209C2.73682 4.98712 2.66659 5.15669 2.66659 5.3335V12.6668C2.66659 12.8436 2.73682 13.0132 2.86185 13.1382C2.98687 13.2633 3.15644 13.3335 3.33325 13.3335H10.6666C10.8434 13.3335 11.013 13.2633 11.138 13.1382C11.263 13.0132 11.3333 12.8436 11.3333 12.6668V8.66683C11.3333 8.29864 11.6317 8.00016 11.9999 8.00016C12.3681 8.00016 12.6666 8.29864 12.6666 8.66683V12.6668C12.6666 13.1973 12.4559 13.706 12.0808 14.081C11.7057 14.4561 11.197 14.6668 10.6666 14.6668H3.33325C2.80282 14.6668 2.29411 14.4561 1.91904 14.081C1.54397 13.706 1.33325 13.1973 1.33325 12.6668V5.3335C1.33325 4.80306 1.54397 4.29436 1.91904 3.91928C2.29411 3.54421 2.80282 3.3335 3.33325 3.3335H7.33325C7.70144 3.3335 7.99992 3.63197 7.99992 4.00016C7.99992 4.36835 7.70144 4.66683 7.33325 4.66683H3.33325Z" fill="#0F1013" fill-opacity="0.87"/>
</svg>
